# Hierarchical Translation and Rotation (.htr) file
# Generated by EVaRT
[Header]
FileType htr
DataType HTRS
FileVersion 1
NumSegments 23
NumFrames 4
DataFrameRate 120
EulerRotationOrder ZYX
CalibrationUnits mm
RotationUnits Degrees
GlobalAxisofGravity Y
BoneLengthAxis Y
ScaleFactor 1
[SegmentNames&Hierarchy]
#CHILD            PARENT
DaveRoot          GLOBAL
Spine1            DaveRoot
Spine2            Spine1
Spine3            Spine2
Spine4            Spine3
Neck              Spine4
Head              Neck
LClavicle         Spine4
LUpperArm         LClavicle
LLowerArm         LUpperArm
LHand             LLowerArm
RClavicle         Spine4
RUpperArm         RClavicle
RLowerArm         RUpperArm
RHand             RLowerArm
RUpperLeg         DaveRoot
RLowerLeg         RUpperLeg
RFoot             RLowerLeg
RToes             RFoot
LUpperLeg         DaveRoot
LLowerLeg         LUpperLeg
LFoot             LLowerLeg
LToes             LFoot
[BasePosition]
#SegmentName      Tx   Ty   Tz   Rx   Ry   Rz   BoneLength
DaveRoot          -2055.569378	951.555595	-349.488296	-55.286396	87.050266	-65.121985	100.000000
Spine1            0.000000	100.000000	0.000000	-15.583766	0.109194	-2.004305	100.000000
Spine2            0.000000	100.000000	0.000000	5.873579	0.737526	-1.849210	100.000000
Spine3            0.000000	100.000000	0.000000	12.197367	0.936767	-1.756723	100.000000
Spine4            0.000000	100.000000	0.000000	13.310112	2.040835	-0.212222	100.000000
Neck              0.000000	100.000000	0.000000	12.619245	0.173111	5.676401	80.000000
Head              0.000000	80.000000	0.000000	-46.107413	-7.464542	12.340102	200.000000
LClavicle         0.000000	100.000000	0.000000	1.044460	-1.911847	-125.483710	200.000000
LUpperArm         0.000000	200.000000	0.000000	43.357802	45.679579	2.001361	300.000000
LLowerArm         0.000000	300.000000	0.000000	0.730208	2.175812	1.895763	200.000000
LHand             0.000000	200.000000	0.000000	7.864047	-1.768569	8.793625	120.000000
RClavicle         0.000000	100.000000	0.000000	-0.545713	-3.840301	119.120382	200.000000
RUpperArm         0.000000	200.000000	0.000000	38.253382	-38.646808	20.273438	300.000000
RLowerArm         0.000000	300.000000	0.000000	3.077531	-3.682026	-7.348670	200.000000
RHand             0.000000	200.000000	0.000000	24.943087	4.220171	-5.193807	120.000000
RUpperLeg         -115.911102	-10.000000	31.058285	22.464267	14.037388	-176.329742	530.000000
RLowerLeg         0.000000	530.000000	0.000000	-23.704548	0.479387	-2.520024	460.000000
RFoot             0.000000	460.000000	0.000000	90.327319	5.730808	-0.531790	130.000000
RToes             0.000000	130.000000	0.000000	18.726053	0.005479	-0.002881	100.000000
LUpperLeg         115.911102	-10.000000	31.058285	16.272232	9.077962	178.396881	530.000000
LLowerLeg         0.000000	530.000000	0.000000	-9.044305	-3.275937	3.046484	460.000000
LFoot             0.000000	460.000000	0.000000	80.193205	-12.160808	23.252942	130.000000
LToes             0.000000	130.000000	0.000000	33.283153	-0.000000	-0.000086	100.000000
#Beginning of Data.
[DaveRoot]
#Fr	Tx	Ty	Tz	Rx	Ry	Rz	SF
371	569.774967	-114.377954	62.643908	19.994736	-30.585893	3.225040	1.000000	
372	579.495381	-114.517725	62.401391	20.934780	-30.291750	2.745512	1.000000	
373	591.738656	-110.507425	62.809465	21.983624	-30.038797	2.527625	1.000000	
374	602.188613	-109.106291	62.410767	22.874627	-29.736549	1.928019	1.000000	
[Spine1]
#Fr	Tx	Ty	Tz	Rx	Ry	Rz	SF
371	0.000000	0.000000	0.000000	0.709857	1.555715	0.865445	1.000000	
372	0.000000	0.000000	0.000000	0.089435	1.659697	1.024020	1.000000	
373	0.000000	0.000000	0.000000	0.717447	1.274034	0.917293	1.000000	
374	0.000000	0.000000	0.000000	-0.199133	1.493289	1.165084	1.000000	
[Spine2]
#Fr	Tx	Ty	Tz	Rx	Ry	Rz	SF
371	0.000000	0.000000	0.000000	0.709857	1.555715	0.865445	1.000000	
372	0.000000	0.000000	0.000000	0.089435	1.659697	1.024020	1.000000	
373	0.000000	0.000000	0.000000	0.717447	1.274034	0.917293	1.000000	
374	0.000000	0.000000	0.000000	-0.199133	1.493289	1.165084	1.000000	
[Spine3]
#Fr	Tx	Ty	Tz	Rx	Ry	Rz	SF
371	0.000000	0.000000	0.000000	0.709857	1.555715	0.865445	1.000000	
372	0.000000	0.000000	0.000000	0.089435	1.659697	1.024020	1.000000	
373	0.000000	0.000000	0.000000	0.717447	1.274034	0.917293	1.000000	
374	0.000000	0.000000	0.000000	-0.199133	1.493289	1.165084	1.000000	
[Spine4]
#Fr	Tx	Ty	Tz	Rx	Ry	Rz	SF
371	0.000000	0.000000	0.000000	0.709857	1.555715	0.865445	1.000000	
372	0.000000	0.000000	0.000000	0.089435	1.659697	1.024020	1.000000	
373	0.000000	0.000000	0.000000	0.717447	1.274034	0.917293	1.000000	
374	0.000000	0.000000	0.000000	-0.199133	1.493289	1.165084	1.000000	
[Neck]
#Fr	Tx	Ty	Tz	Rx	Ry	Rz	SF
371	0.000000	0.000000	0.000000	-7.320924	21.775231	-12.834385	1.000000	
372	0.000000	0.000000	0.000000	-4.497792	21.832270	-11.548506	1.000000	
373	0.000000	0.000000	0.000000	-8.669263	21.634875	-13.476264	1.000000	
374	0.000000	0.000000	0.000000	-4.080986	21.816134	-11.419688	1.000000	
[Head]
#Fr	Tx	Ty	Tz	Rx	Ry	Rz	SF
371	0.000000	0.000000	0.000000	-7.320924	21.775231	-12.834385	1.000000	
372	0.000000	0.000000	0.000000	-4.497792	21.832270	-11.548506	1.000000	
373	0.000000	0.000000	0.000000	-8.669263	21.634875	-13.476264	1.000000	
374	0.000000	0.000000	0.000000	-4.080986	21.816134	-11.419688	1.000000	
[LClavicle]
#Fr	Tx	Ty	Tz	Rx	Ry	Rz	SF
371	0.000000	0.000000	0.000000	2.569171	0.430316	11.512587	1.000000	
372	0.000000	0.000000	0.000000	10.225504	1.207142	14.353319	1.000000	
373	0.000000	0.000000	0.000000	0.463785	0.080841	11.127066	1.000000	
374	0.000000	0.000000	0.000000	12.343820	1.143149	15.805556	1.000000	
[LUpperArm]
#Fr	Tx	Ty	Tz	Rx	Ry	Rz	SF
371	0.000000	0.000000	0.000000	10.348508	-46.432528	-12.443991	1.000000	
372	0.000000	0.000000	0.000000	5.926142	-53.158923	-19.269997	1.000000	
373	0.000000	0.000000	0.000000	12.710126	-47.586008	-11.158224	1.000000	
374	0.000000	0.000000	0.000000	6.577738	-56.827858	-22.210737	1.000000	
[LLowerArm]
#Fr	Tx	Ty	Tz	Rx	Ry	Rz	SF
371	0.000000	0.000000	0.000000	70.489294	-0.000000	-0.000000	1.000000	
372	0.000000	0.000000	0.000000	78.602791	-0.000000	-0.000000	1.000000	
373	0.000000	0.000000	0.000000	75.187505	-0.000000	-0.000000	1.000000	
374	0.000000	0.000000	0.000000	85.533526	-0.000000	-0.000000	1.000000	
[LHand]
#Fr	Tx	Ty	Tz	Rx	Ry	Rz	SF
371	0.000000	0.000000	0.000000	0.399137	-0.000000	0.000000	1.000000	
372	0.000000	0.000000	0.000000	-1.877905	-0.000000	0.000000	1.000000	
373	0.000000	0.000000	0.000000	0.480169	-0.000000	0.000000	1.000000	
374	0.000000	0.000000	0.000000	-2.938665	0.000000	0.000000	1.000000	
[RClavicle]
#Fr	Tx	Ty	Tz	Rx	Ry	Rz	SF
371	0.000000	0.000000	0.000000	3.070167	-0.107926	-9.284961	1.000000	
372	0.000000	0.000000	0.000000	5.748147	-0.014071	-11.156546	1.000000	
373	0.000000	0.000000	0.000000	2.074203	-0.083380	-8.995378	1.000000	
374	0.000000	0.000000	0.000000	6.170724	0.085773	-12.089610	1.000000	
[RUpperArm]
#Fr	Tx	Ty	Tz	Rx	Ry	Rz	SF
371	0.000000	0.000000	0.000000	0.040145	27.279645	6.699645	1.000000	
372	0.000000	0.000000	0.000000	-3.307279	32.963130	11.027979	1.000000	
373	0.000000	0.000000	0.000000	-0.418974	26.520635	6.951921	1.000000	
374	0.000000	0.000000	0.000000	-4.748245	34.863674	13.407492	1.000000	
[RLowerArm]
#Fr	Tx	Ty	Tz	Rx	Ry	Rz	SF
371	0.000000	0.000000	0.000000	32.476978	-0.000000	-0.000000	1.000000	
372	0.000000	0.000000	0.000000	34.639523	-0.000000	-0.000000	1.000000	
373	0.000000	0.000000	0.000000	32.182470	-0.000000	-0.000000	1.000000	
374	0.000000	0.000000	0.000000	34.964873	-0.000000	-0.000000	1.000000	
[RHand]
#Fr	Tx	Ty	Tz	Rx	Ry	Rz	SF
371	0.000000	0.000000	0.000000	-16.130507	-7.708159	-5.632757	1.000000	
372	0.000000	0.000000	0.000000	-17.620266	-12.386222	-3.912609	1.000000	
373	0.000000	0.000000	0.000000	-17.036470	-13.996240	-5.018727	1.000000	
374	0.000000	0.000000	0.000000	-19.022841	-18.916390	-2.060429	1.000000	
[RUpperLeg]
#Fr	Tx	Ty	Tz	Rx	Ry	Rz	SF
371	0.000000	0.000000	0.000000	18.746526	-17.182862	-0.350799	1.000000	
372	0.000000	0.000000	0.000000	18.584937	-16.623035	-0.277070	1.000000	
373	0.000000	0.000000	0.000000	18.160121	-16.060356	-0.457030	1.000000	
374	0.000000	0.000000	0.000000	17.540159	-15.477304	-0.294624	1.000000	
[RLowerLeg]
#Fr	Tx	Ty	Tz	Rx	Ry	Rz	SF
371	0.000000	0.000000	0.000000	-33.376525	0.000000	0.000000	1.000000	
372	0.000000	0.000000	0.000000	-32.675695	0.000000	0.000000	1.000000	
373	0.000000	0.000000	0.000000	-30.887092	0.000000	0.000000	1.000000	
374	0.000000	0.000000	0.000000	-29.480019	0.000000	0.000000	1.000000	
[RFoot]
#Fr	Tx	Ty	Tz	Rx	Ry	Rz	SF
371	0.000000	0.000000	0.000000	30.548165	13.793716	-3.234494	1.000000	
372	0.000000	0.000000	0.000000	30.522675	13.936852	-3.002113	1.000000	
373	0.000000	0.000000	0.000000	29.888331	13.824911	-2.903733	1.000000	
374	0.000000	0.000000	0.000000	29.672048	14.184068	-2.317426	1.000000	
[RToes]
#Fr	Tx	Ty	Tz	Rx	Ry	Rz	SF
371	0.000000	0.000000	0.000000	-7.110098	-0.000000	0.000000	1.000000	
372	0.000000	0.000000	0.000000	-7.295316	-0.000000	0.000000	1.000000	
373	0.000000	0.000000	0.000000	-7.186681	0.000000	0.000000	1.000000	
374	0.000000	0.000000	0.000000	-7.612958	0.000000	0.000000	1.000000	
[LUpperLeg]
#Fr	Tx	Ty	Tz	Rx	Ry	Rz	SF
371	0.000000	0.000000	0.000000	32.542502	5.693030	2.512745	1.000000	
372	0.000000	0.000000	0.000000	32.493316	5.873933	2.560412	1.000000	
373	0.000000	0.000000	0.000000	32.161418	5.926538	2.300835	1.000000	
374	0.000000	0.000000	0.000000	31.807411	5.684460	2.294232	1.000000	
[LLowerLeg]
#Fr	Tx	Ty	Tz	Rx	Ry	Rz	SF
371	0.000000	0.000000	0.000000	-65.255927	0.000000	-0.000000	1.000000	
372	0.000000	0.000000	0.000000	-64.826500	0.000000	-0.000000	1.000000	
373	0.000000	0.000000	0.000000	-63.379249	0.000000	-0.000000	1.000000	
374	0.000000	0.000000	0.000000	-62.571060	0.000000	-0.000000	1.000000	
[LFoot]
#Fr	Tx	Ty	Tz	Rx	Ry	Rz	SF
371	0.000000	0.000000	0.000000	13.738483	-3.783041	-5.090637	1.000000	
372	0.000000	0.000000	0.000000	13.861656	-3.663180	-4.597748	1.000000	
373	0.000000	0.000000	0.000000	13.476478	-3.367500	-3.914776	1.000000	
374	0.000000	0.000000	0.000000	13.366196	-2.964893	-3.083384	1.000000	
[LToes]
#Fr	Tx	Ty	Tz	Rx	Ry	Rz	SF
371	0.000000	0.000000	0.000000	20.541039	-0.000000	0.000000	1.000000	
372	0.000000	0.000000	0.000000	20.932566	-0.000000	0.000000	1.000000	
373	0.000000	0.000000	0.000000	21.383557	-0.000000	0.000000	1.000000	
374	0.000000	0.000000	0.000000	21.826359	-0.000000	0.000000	1.000000	
